<svg id="Layer_1" data-name="Layer 1" xmlns="http://www.w3.org/2000/svg" viewBox="0 0 109.76466 109.76465"><polygon points="31.547 76.182 31.547 71.77 37.917 71.785 37.917 76.182 31.547 76.182"/><polygon points="36.917 72.782 36.917 75.182 32.547 75.182 32.547 72.772 36.917 72.782"/><path d="M438.50966,255.79424l-2.13,2.13c-.47-.03-.95-.05-1.43-.05h-5.27l2.37-2.37h2.9A20.61213,20.61213,0,0,1,438.50966,255.79424Z" transform="translate(-366.06249 -220.92188)"/><rect x="33.54749" y="77.1781" width="4.09003" height="6.27002"/><path d="M444.98,304.37h-6.29l-6.8-7.26-.29-.29-4.78-5.1L413.98,278H403.7v13.7l-4.09-.01V247.54h4.09V273.6h10.28L426.84,259.87h4.7c.38,0,.77.02,1.14.05.13.01.26.02.39.04L418.23,275.8l14.95,15.96,4.9,5.23Z" transform="translate(-366.06249 -220.92188)"/><path d="M444.85,247.37l-6.8,7.27a15.90412,15.90412,0,0,0-2.97-.81,18.76935,18.76935,0,0,0-2.3-.29l5.78-6.17Z" transform="translate(-366.06249 -220.92188)"/><polygon points="64.427 76.178 26.578 76.178 26.578 33.578 32.547 33.578 32.547 37.948 30.498 37.948 30.528 71.768 32.838 71.768 36.768 71.778 38.638 71.778 60.328 71.798 64.427 76.178"/><path d="M450.67,275.8a21.566,21.566,0,0,1-5.61,15.06,18.79182,18.79182,0,0,1-6.73,4.94l-3.27-3.49a14.47244,14.47244,0,0,0,7.22-4.54,18.293,18.293,0,0,0,0-23.94,14.45275,14.45275,0,0,0-7.23-4.53,13.35016,13.35016,0,0,0-2.29-.38c-.4-.03-.81-.05-1.22-.05H404.7V254.5h26.84a17.74007,17.74007,0,0,1,3.35.31,15.92362,15.92362,0,0,1,3.43,1h.01a18.52518,18.52518,0,0,1,6.73,4.93A21.58314,21.58314,0,0,1,450.67,275.8Z" transform="translate(-366.06249 -220.92188)"/><path d="M420.94482,330.68652a54.88232,54.88232,0,1,1,54.88233-54.88183A54.94439,54.94439,0,0,1,420.94482,330.68652Zm0-105.76464a50.88232,50.88232,0,1,0,50.88233,50.88281A50.94,50.94,0,0,0,420.94482,224.92188Z" transform="translate(-366.06249 -220.92188)"/><path d="M420.94476,329.68682a53.88257,53.88257,0,1,1,53.88281-53.88233A53.9432,53.9432,0,0,1,420.94476,329.68682Zm0-105.76514a51.88257,51.88257,0,1,0,51.88281,51.88281A51.94132,51.94132,0,0,0,420.94476,223.92168Z" transform="translate(-366.06249 -220.92188)"/></svg>